<?xml version="1.0" encoding="utf-8"?>
<!DOCTYPE svg PUBLIC "-//W3C//DTD SVG 1.0//EN" "http://www.w3.org/TR/2001/REC-SVG-20010904/DTD/svg10.dtd">
<svg version="1.0" xmlns="http://www.w3.org/2000/svg" width="1152px" height="1152px" viewBox="0 0 1152 1152" preserveAspectRatio="xMidYMid meet">
 <g fill="#1d00ff">
  <path d="M550 926.4 c-1.4 -0.2 -6.5 -0.9 -11.3 -1.6 -9.7 -1.3 -11.5 -2.4 -9.1 -5.4 0.8 -1 9.6 -14 19.4 -28.9 9.9 -14.8 18.5 -27.7 19.1 -28.5 0.5 -0.9 5.5 -8.3 10.9 -16.5 5.4 -8.3 10.2 -15.4 10.7 -16 0.4 -0.5 4.2 -6.2 8.3 -12.5 4.1 -6.3 7.7 -11.7 8 -12 0.4 -0.3 1.7 -2.3 3 -4.5 1.3 -2.2 2.6 -4.2 3 -4.5 0.3 -0.3 3.9 -5.7 8 -12 4.1 -6.3 7.9 -11.9 8.3 -12.5 0.5 -0.5 5.3 -7.7 10.7 -16 5.4 -8.2 10.2 -15.4 10.7 -16 0.4 -0.5 4.2 -6.2 8.3 -12.5 4.1 -6.3 7.7 -11.7 8 -12 0.4 -0.3 1.7 -2.3 3 -4.5 1.3 -2.2 2.6 -4.2 3 -4.5 0.3 -0.3 3.9 -5.7 8 -12 4.1 -6.3 7.9 -11.9 8.3 -12.5 0.5 -0.5 5.3 -7.7 10.7 -16 5.4 -8.2 10.2 -15.4 10.7 -16 0.4 -0.5 2 -2.9 3.6 -5.2 l2.7 -4.3 -56.8 0 -56.8 0 1.8 -10.2 c1 -5.7 2.4 -14.6 3.2 -19.8 0.8 -5.2 3.5 -21.6 6.1 -36.5 2.5 -14.8 5 -29.7 5.5 -33 0.5 -3.3 2.1 -12.7 3.5 -21 1.4 -8.2 3.3 -19 4.1 -24 3.6 -22.6 4.5 -27.9 6.9 -42 1.5 -8.2 3.2 -18.8 4 -23.5 3.3 -21.4 3.8 -24.5 4 -24.8 0.4 -0.4 12.7 3.1 21 5.9 5.8 2 8.1 2.9 12.8 4.8 1.2 0.6 4.5 1.9 7.2 3.1 2.8 1.1 5.8 2.5 6.7 3 4.1 2.3 3.6 3.2 19.8 -38.5 6.5 -16.8 7.5 -21.9 7.5 -37 0 -15.3 -1.2 -21.1 -7.6 -35.3 -7.5 -16.6 -21.8 -31.7 -38.4 -40.4 -2.7 -1.4 -8.8 -3.9 -13.5 -5.4 l-8.5 -2.9 -72.5 0 -72.5 0 -8.5 2.9 c-29.8 10 -49.5 31.4 -58.1 63.1 -2 7.1 -1.7 31.3 0.3 38.5 2.9 10.1 20.1 53.7 21.8 55.4 0.6 0.6 1.8 0.5 3.2 -0.2 18.7 -9.1 43.4 -17.1 65.8 -21.2 22.3 -4.1 50.7 -5.2 74 -3 10.8 1 22 2.9 22 3.7 0 0.4 -9.2 14.5 -10 15.3 -0.3 0.3 -5.2 7.7 -11 16.5 -5.8 8.8 -10.9 16.4 -11.3 17 -4.2 5.3 -155.3 233.5 -154.9 233.9 0.3 0.3 25.7 0.6 56.4 0.6 44 0 55.8 0.3 55.8 1.3 0 0.6 -0.9 6.6 -2 13.2 -1.2 6.6 -2.5 14.7 -3 18 -1.3 8.6 -3.5 21.7 -6.5 39 -1.4 8.3 -3.2 19.1 -4 24 -2.7 17.3 -4.4 27.1 -5.9 35.7 -0.9 4.8 -2 11.6 -2.6 15 -1.8 12 -10.3 62.8 -11.9 71.8 -0.6 3 -1.3 7.9 -1.7 10.8 -0.4 3 -1.2 5.2 -1.9 5.2 -4.6 0 -35.3 -11.3 -49.5 -18.3 -13.3 -6.5 -37.2 -20.9 -41 -24.7 -0.3 -0.3 -3.4 -2.7 -7 -5.5 -15.4 -11.7 -33.3 -29.9 -46.6 -47 -25.4 -32.9 -43.6 -74.2 -50.8 -115.5 -4.7 -27.2 -5 -63.6 -0.5 -88.5 3.2 -18.3 9.2 -40.4 13.9 -52 10.1 -24.5 20.8 -44.2 33.5 -61.6 7.9 -10.8 20.6 -25.1 31.2 -35.4 4.6 -4.3 8.3 -8.5 8.3 -9.3 0 -0.8 -0.6 -2.8 -1.4 -4.5 -3 -6.7 -23 -57.5 -24.6 -62.7 -2.3 -7.2 -3.8 -13.4 -5.5 -23.4 -1.9 -10.7 -1.9 -36.6 0 -47.6 8 -45.5 33.3 -83 72 -106.7 6.8 -4.1 13.5 -7.5 25 -12.3 5.3 -2.2 15.8 -5.3 24.9 -7.3 9.9 -2.2 11.6 -2.2 84.6 -2.2 73 0 74.7 0 84.5 2.2 13.4 2.9 24.1 6.5 35.5 11.9 8.3 3.9 23.6 12.7 25 14.4 0.3 0.3 3.5 2.9 7.2 5.8 17.7 13.9 33.7 35.2 43.8 58.1 14.3 32.7 16.1 72.2 4.7 108.1 -1.4 4.4 -21.5 55.6 -24.3 61.7 -0.8 1.7 -1.4 3.7 -1.4 4.5 0 0.8 3.7 5 8.3 9.3 4.5 4.4 11.6 11.9 15.7 16.6 9.9 11.3 10.9 12.5 15 18.4 1.9 2.8 3.7 5.2 4 5.5 1.3 1.3 8.4 12.8 13.7 22.1 4.8 8.5 11 21.6 16.3 34.4 4.8 11.7 10.8 34.2 13.9 52 4.8 27.5 4.3 62.3 -1.3 93 -7 38 -25.6 79.5 -50 111 -13.1 16.9 -29.7 33.7 -46.1 46.7 -3.3 2.7 -6.4 5.2 -7 5.6 -0.5 0.4 -6.2 4.2 -12.6 8.4 -30.3 20.1 -62.5 32.7 -101.4 39.9 -9 1.7 -16.2 2.1 -39 2.4 -15.4 0.2 -29.1 0.2 -30.5 -0.1z"/>
 </g>
</svg>